{
  "scenes": [
    {
      "nodes": [0]
    }
  ],
  "asset": {
    "version": "2.0",
    "generator": "Created using the official Cinema 4D glTF Exporter 1.000x284978"
  },
  "nodes": [
    {
      "name": "Cylinder",
      "translation": [0.0, 65.29951477050781, 0.0],
      "rotation": [0.0, 0.0, 0.0, -1.0],
      "scale": [1.0, 1.0, 1.0],
      "children": [1, 2, 3, 4, 5, 6, 7]
    },
    {
      "name": "Cylinder-Mat.1",
      "translation": [0.0, 1.4210854715202005e-14, 0.0],
      "rotation": [0.0, 0.0, 0.0, -1.0],
      "scale": [1.0, 1.0, 1.0],
      "mesh": 0
    },
    {
      "name": "Cylinder-Mat.1",
      "translation": [0.0, 1.4210854715202005e-14, 0.0],
      "rotation": [0.0, 0.0, 0.0, -1.0],
      "scale": [1.0, 1.0, 1.0],
      "mesh": 1
    },
    {
      "name": "Cylinder-Mat.1",
      "translation": [0.0, 1.4210854715202005e-14, 0.0],
      "rotation": [0.0, 0.0, 0.0, -1.0],
      "scale": [1.0, 1.0, 1.0],
      "mesh": 2
    },
    {
      "name": "Cylinder-Mat.1",
      "translation": [0.0, 1.4210854715202005e-14, 0.0],
      "rotation": [0.0, 0.0, 0.0, -1.0],
      "scale": [1.0, 1.0, 1.0],
      "mesh": 3
    },
    {
      "name": "Cylinder-Mat",
      "translation": [0.0, 1.4210854715202005e-14, 0.0],
      "rotation": [0.0, 0.0, 0.0, -1.0],
      "scale": [1.0, 1.0, 1.0],
      "mesh": 4
    },
    {
      "name": "Cylinder-Mat",
      "translation": [0.0, 1.4210854715202005e-14, 0.0],
      "rotation": [0.0, 0.0, 0.0, -1.0],
      "scale": [1.0, 1.0, 1.0],
      "mesh": 5
    },
    {
      "name": "Cylinder-Mat",
      "translation": [0.0, 1.4210854715202005e-14, 0.0],
      "rotation": [0.0, 0.0, 0.0, -1.0],
      "scale": [1.0, 1.0, 1.0],
      "mesh": 6
    }
  ],
  "meshes": [
    {
      "name": "Cylinder-Mat.1",
      "primitives": [
        {
          "attributes": {
            "POSITION": 1,
            "NORMAL": 2,
            "TEXCOORD_0": 3
          },
          "indices": 0,
          "material": 0
        }
      ]
    },
    {
      "name": "Cylinder-Mat.1",
      "primitives": [
        {
          "attributes": {
            "POSITION": 5,
            "NORMAL": 6,
            "TEXCOORD_0": 7
          },
          "indices": 4,
          "material": 0
        }
      ]
    },
    {
      "name": "Cylinder-Mat.1",
      "primitives": [
        {
          "attributes": {
            "POSITION": 9,
            "NORMAL": 10,
            "TEXCOORD_0": 11
          },
          "indices": 8,
          "material": 0
        }
      ]
    },
    {
      "name": "Cylinder-Mat.1",
      "primitives": [
        {
          "attributes": {
            "POSITION": 13,
            "NORMAL": 14,
            "TEXCOORD_0": 15
          },
          "indices": 12,
          "material": 0
        }
      ]
    },
    {
      "name": "Cylinder-Mat",
      "primitives": [
        {
          "attributes": {
            "POSITION": 17,
            "NORMAL": 18,
            "TEXCOORD_0": 19
          },
          "indices": 16,
          "material": 1
        }
      ]
    },
    {
      "name": "Cylinder-Mat",
      "primitives": [
        {
          "attributes": {
            "POSITION": 21,
            "NORMAL": 22,
            "TEXCOORD_0": 23
          },
          "indices": 20,
          "material": 1
        }
      ]
    },
    {
      "name": "Cylinder-Mat",
      "primitives": [
        {
          "attributes": {
            "POSITION": 25,
            "NORMAL": 26,
            "TEXCOORD_0": 27
          },
          "indices": 24,
          "material": 1
        }
      ]
    }
  ],
  "accessors": [
    {
      "bufferView": 0,
      "min": [0],
      "byteOffset": 0,
      "type": "SCALAR",
      "componentType": 5123,
      "count": 567,
      "max": [175]
    },
    {
      "bufferView": 1,
      "min": [-31.745729446411134, -63.70719909667969, -32.0145378112793],
      "byteOffset": 0,
      "type": "VEC3",
      "componentType": 5126,
      "count": 176,
      "max": [32.10430908203125, -33.65483093261719, 32.0145378112793]
    },
    {
      "bufferView": 1,
      "min": [-0.9888125658035278, -1.0, -0.9971563220024109],
      "byteOffset": 12,
      "type": "VEC3",
      "componentType": 5126,
      "count": 176,
      "max": [0.9999688267707825, 0.9199063181877136, 0.9971563220024109]
    },
    {
      "bufferView": 1,
      "min": [0.0, 0.0013981014490127564],
      "byteOffset": 24,
      "type": "VEC2",
      "componentType": 5126,
      "count": 176,
      "max": [1.0, 1.0]
    },
    {
      "bufferView": 2,
      "min": [0],
      "byteOffset": 0,
      "type": "SCALAR",
      "componentType": 5123,
      "count": 630,
      "max": [153]
    },
    {
      "bufferView": 3,
      "min": [-31.745729446411134, -28.27526092529297, -32.0145378112793],
      "byteOffset": 0,
      "type": "VEC3",
      "componentType": 5126,
      "count": 154,
      "max": [32.10430908203125, -1.0792046785354615, 32.0145378112793]
    },
    {
      "bufferView": 3,
      "min": [-0.9616875648498535, -0.9139062762260437, -0.9701563119888306],
      "byteOffset": 12,
      "type": "VEC3",
      "componentType": 5126,
      "count": 154,
      "max": [0.9730625748634338, 0.9710937738418579, 0.9701563119888306]
    },
    {
      "bufferView": 3,
      "min": [0.0, 0.5084038972854614],
      "byteOffset": 24,
      "type": "VEC2",
      "componentType": 5126,
      "count": 154,
      "max": [1.0, 0.7594232559204102]
    },
    {
      "bufferView": 4,
      "min": [0],
      "byteOffset": 0,
      "type": "SCALAR",
      "componentType": 5123,
      "count": 630,
      "max": [153]
    },
    {
      "bufferView": 5,
      "min": [-31.745729446411134, 4.083506107330322, -32.0145378112793],
      "byteOffset": 0,
      "type": "VEC3",
      "componentType": 5126,
      "count": 154,
      "max": [32.10430908203125, 30.622806549072267, 32.0145378112793]
    },
    {
      "bufferView": 5,
      "min": [-0.9508438110351563, -0.963843822479248, -0.959281325340271],
      "byteOffset": 12,
      "type": "VEC3",
      "componentType": 5126,
      "count": 154,
      "max": [0.9622188210487366, 0.9570937752723694, 0.959281325340271]
    },
    {
      "bufferView": 5,
      "min": [0.0, 0.2615365982055664],
      "byteOffset": 24,
      "type": "VEC2",
      "componentType": 5126,
      "count": 154,
      "max": [1.0, 0.46820127964019778]
    },
    {
      "bufferView": 6,
      "min": [0],
      "byteOffset": 0,
      "type": "SCALAR",
      "componentType": 5123,
      "count": 567,
      "max": [175]
    },
    {
      "bufferView": 7,
      "min": [-31.745729446411134, 34.75303649902344, -32.0145378112793],
      "byteOffset": 0,
      "type": "VEC3",
      "componentType": 5126,
      "count": 176,
      "max": [32.10430908203125, 64.2086181640625, 32.0145378112793]
    },
    {
      "bufferView": 7,
      "min": [-0.9888125658035278, -1.0, -0.9971563220024109],
      "byteOffset": 12,
      "type": "VEC3",
      "componentType": 5126,
      "count": 176,
      "max": [0.9999688267707825, 1.0, 0.9971563220024109]
    },
    {
      "bufferView": 7,
      "min": [0.0, 0.0],
      "byteOffset": 24,
      "type": "VEC2",
      "componentType": 5126,
      "count": 176,
      "max": [1.0, 0.9986019134521484]
    },
    {
      "bufferView": 8,
      "min": [0],
      "byteOffset": 0,
      "type": "SCALAR",
      "componentType": 5123,
      "count": 126,
      "max": [43]
    },
    {
      "bufferView": 9,
      "min": [-27.37954330444336, -33.65483093261719, -27.61138153076172],
      "byteOffset": 0,
      "type": "VEC3",
      "componentType": 5126,
      "count": 44,
      "max": [27.688804626464845, -28.27526092529297, 27.61138153076172]
    },
    {
      "bufferView": 9,
      "min": [-0.9888125658035278, 0.0, -0.9971563220024109],
      "byteOffset": 12,
      "type": "VEC3",
      "componentType": 5126,
      "count": 44,
      "max": [1.0, 0.0, 0.9971563220024109]
    },
    {
      "bufferView": 9,
      "min": [0.0, 0.7594232559204102],
      "byteOffset": 24,
      "type": "VEC2",
      "componentType": 5126,
      "count": 44,
      "max": [1.0, 0.8062489032745361]
    },
    {
      "bufferView": 10,
      "min": [0],
      "byteOffset": 0,
      "type": "SCALAR",
      "componentType": 5123,
      "count": 126,
      "max": [43]
    },
    {
      "bufferView": 11,
      "min": [-27.37954330444336, -1.0792046785354615, -27.61138153076172],
      "byteOffset": 0,
      "type": "VEC3",
      "componentType": 5126,
      "count": 44,
      "max": [27.688804626464845, 4.083506107330322, 27.61138153076172]
    },
    {
      "bufferView": 11,
      "min": [-0.9888125658035278, 0.0, -0.9971563220024109],
      "byteOffset": 12,
      "type": "VEC3",
      "componentType": 5126,
      "count": 44,
      "max": [1.0, 0.0, 0.9971563220024109]
    },
    {
      "bufferView": 11,
      "min": [0.0, 0.46820127964019778],
      "byteOffset": 24,
      "type": "VEC2",
      "componentType": 5126,
      "count": 44,
      "max": [1.0, 0.5084038972854614]
    },
    {
      "bufferView": 12,
      "min": [0],
      "byteOffset": 0,
      "type": "SCALAR",
      "componentType": 5123,
      "count": 126,
      "max": [43]
    },
    {
      "bufferView": 13,
      "min": [-27.37954330444336, 30.622806549072267, -27.61138153076172],
      "byteOffset": 0,
      "type": "VEC3",
      "componentType": 5126,
      "count": 44,
      "max": [27.688804626464845, 34.75303649902344, 27.61138153076172]
    },
    {
      "bufferView": 13,
      "min": [-0.9888125658035278, 0.0, -0.9971563220024109],
      "byteOffset": 12,
      "type": "VEC3",
      "componentType": 5126,
      "count": 44,
      "max": [1.0, 0.0, 0.9971563220024109]
    },
    {
      "bufferView": 13,
      "min": [0.0, 0.2293740212917328],
      "byteOffset": 24,
      "type": "VEC2",
      "componentType": 5126,
      "count": 44,
      "max": [1.0, 0.2615365982055664]
    }
  ],
  "bufferViews": [
    {
      "buffer": 0,
      "byteOffset": 0,
      "byteLength": 1134,
      "target": 34963
    },
    {
      "buffer": 0,
      "byteOffset": 1136,
      "byteLength": 5632,
      "target": 34962,
      "byteStride": 32
    },
    {
      "buffer": 1,
      "byteOffset": 0,
      "byteLength": 1260,
      "target": 34963
    },
    {
      "buffer": 1,
      "byteOffset": 1260,
      "byteLength": 4928,
      "target": 34962,
      "byteStride": 32
    },
    {
      "buffer": 2,
      "byteOffset": 0,
      "byteLength": 1260,
      "target": 34963
    },
    {
      "buffer": 2,
      "byteOffset": 1260,
      "byteLength": 4928,
      "target": 34962,
      "byteStride": 32
    },
    {
      "buffer": 3,
      "byteOffset": 0,
      "byteLength": 1134,
      "target": 34963
    },
    {
      "buffer": 3,
      "byteOffset": 1136,
      "byteLength": 5632,
      "target": 34962,
      "byteStride": 32
    },
    {
      "buffer": 4,
      "byteOffset": 0,
      "byteLength": 252,
      "target": 34963
    },
    {
      "buffer": 4,
      "byteOffset": 252,
      "byteLength": 1408,
      "target": 34962,
      "byteStride": 32
    },
    {
      "buffer": 5,
      "byteOffset": 0,
      "byteLength": 252,
      "target": 34963
    },
    {
      "buffer": 5,
      "byteOffset": 252,
      "byteLength": 1408,
      "target": 34962,
      "byteStride": 32
    },
    {
      "buffer": 6,
      "byteOffset": 0,
      "byteLength": 252,
      "target": 34963
    },
    {
      "buffer": 6,
      "byteOffset": 252,
      "byteLength": 1408,
      "target": 34962,
      "byteStride": 32
    }
  ],
  "buffers": [
    {
      "uri": "data:application/octet-stream;base64,",
      "byteLength": 6768
    },
    {
      "uri": "data:application/octet-stream;base64,",
      "byteLength": 6188
    },
    {
      "uri": "data:application/octet-stream;base64,",
      "byteLength": 6188
    },
    {
      "uri": "data:application/octet-stream;base64,",
      "byteLength": 6768
    },
    {
      "uri": "data:application/octet-stream;base64,",
      "byteLength": 1660
    },
    {
      "uri": "data:application/octet-stream;base64,",
      "byteLength": 1660
    },
    {
      "uri": "data:application/octet-stream;base64,",
      "byteLength": 1660
    }
  ],
  "materials": [
    {
      "name": "Mat.1",
      "pbrMetallicRoughness": {
        "baseColorFactor": [0.0, 0.0, 0.0, 1.0],
        "metallicFactor": 1.0,
        "roughnessFactor": 0.29
      },
      "emissiveFactor": [0.0, 0.0, 0.0],
      "alphaMode": "OPAQUE",
      "doubleSided": false
    },
    {
      "name": "Mat",
      "pbrMetallicRoughness": {
        "baseColorFactor": [0.72, 0.9579999999999996, 1.0, 1.0],
        "metallicFactor": 0.0,
        "roughnessFactor": 0.5
      },
      "emissiveFactor": [0.0, 0.0, 0.0],
      "alphaMode": "OPAQUE",
      "doubleSided": false
    }
  ]
}
