{
  "scenes": [
    {
      "nodes": [0]
    }
  ],
  "asset": {
    "version": "2.0",
    "generator": "Created using the official Cinema 4D glTF Exporter 1.000x284978"
  },
  "nodes": [
    {
      "name": "Text",
      "translation": [0.0, 0.0, 0.0],
      "rotation": [0.0, 0.0, 0.0, -1.0],
      "scale": [1.0, 1.0, 1.0],
      "children": [1]
    },
    {
      "name": "1",
      "children": [2]
    },
    {
      "name": "JS",
      "children": [3, 4]
    },
    {
      "name": "J",
      "mesh": 0
    },
    {
      "name": "S",
      "translation": [71.38671875, 0.0, 0.0],
      "rotation": [0.0, 0.0, 0.0, -1.0],
      "scale": [1.0, 1.0, 1.0],
      "mesh": 1
    }
  ],
  "meshes": [
    {
      "name": "J",
      "primitives": [
        {
          "attributes": {
            "POSITION": 1,
            "NORMAL": 2,
            "TEXCOORD_0": 3
          },
          "indices": 0,
          "material": 0
        }
      ]
    },
    {
      "name": "S",
      "primitives": [
        {
          "attributes": {
            "POSITION": 5,
            "NORMAL": 6,
            "TEXCOORD_0": 7
          },
          "indices": 4,
          "material": 0
        }
      ]
    }
  ],
  "accessors": [
    {
      "bufferView": 0,
      "min": [0],
      "byteOffset": 0,
      "type": "SCALAR",
      "componentType": 5123,
      "count": 576,
      "max": [207]
    },
    {
      "bufferView": 1,
      "min": [1.953125, -2.34375, -20.0],
      "byteOffset": 0,
      "type": "VEC3",
      "componentType": 5126,
      "count": 208,
      "max": [54.19921875, 140.0390625, 0.0]
    },
    {
      "bufferView": 1,
      "min": [-1.0, -0.9999211430549622, -1.0],
      "byteOffset": 12,
      "type": "VEC3",
      "componentType": 5126,
      "count": 208,
      "max": [1.0, 1.0, 1.0]
    },
    {
      "bufferView": 1,
      "min": [0.0, 0.0],
      "byteOffset": 24,
      "type": "VEC2",
      "componentType": 5126,
      "count": 208,
      "max": [1.0, 1.0]
    },
    {
      "bufferView": 2,
      "min": [0],
      "byteOffset": 0,
      "type": "SCALAR",
      "componentType": 5123,
      "count": 1944,
      "max": [659]
    },
    {
      "bufferView": 3,
      "min": [11.81640625, -2.34375, -20.0],
      "byteOffset": 0,
      "type": "VEC3",
      "componentType": 5126,
      "count": 660,
      "max": [96.6796875, 142.3828125, 0.0]
    },
    {
      "bufferView": 3,
      "min": [-1.0, -0.9999786019325256, -1.0],
      "byteOffset": 12,
      "type": "VEC3",
      "componentType": 5126,
      "count": 660,
      "max": [1.0, 0.999921977519989, 1.0]
    },
    {
      "bufferView": 3,
      "min": [0.0, 0.0],
      "byteOffset": 24,
      "type": "VEC2",
      "componentType": 5126,
      "count": 660,
      "max": [1.0, 1.0]
    }
  ],
  "bufferViews": [
    {
      "buffer": 0,
      "byteOffset": 0,
      "byteLength": 1152,
      "target": 34963
    },
    {
      "buffer": 0,
      "byteOffset": 1152,
      "byteLength": 6656,
      "target": 34962,
      "byteStride": 32
    },
    {
      "buffer": 1,
      "byteOffset": 0,
      "byteLength": 3888,
      "target": 34963
    },
    {
      "buffer": 1,
      "byteOffset": 3888,
      "byteLength": 21120,
      "target": 34962,
      "byteStride": 32
    }
  ],
  "buffers": [
    {
      "uri": "data:application/octet-stream;base64,",
      "byteLength": 7808
    },
    {
      "uri": "data:application/octet-stream;base64,",
      "byteLength": 25008
    }
  ],
  "materials": [
    {
      "name": "Mat",
      "pbrMetallicRoughness": {
        "baseColorFactor": [1.0, 1.0, 1.0, 1.0],
        "metallicFactor": 1.0,
        "roughnessFactor": 1.0
      },
      "emissiveFactor": [1.0, 0.49999999999999969, 0.0],
      "alphaMode": "OPAQUE",
      "doubleSided": false
    }
  ]
}
