{
	"scenes":[{
		"nodes":[0]
	}],
	"asset":{
		"version":"2.0",
		"generator":"Created using the official Cinema 4D glTF Exporter 1.000x284978"
	},
	"nodes":[{
		"name":"Text",
		"translation":[91.43926239013672,
		81.86214447021485,
		0.0],
		"rotation":[0.0,
		0.0,
		0.0,
		-1.0],
		"scale":[1.0,
		1.0,
		1.0],
		"mesh":0
	}],
	"meshes":[{
		"name":"Text",
		"primitives":[{
			"attributes":{
				"POSITION":1,
				"NORMAL":2,
				"TEXCOORD_0":3
			},
			"indices":0,
			"material":0
		}]
	}],
	"accessors":[{
		"bufferView":0,
		"min":[0],
		"byteOffset":0,
		"type":"SCALAR",
		"componentType":5123,
		"count":2520,
		"max":[867]
	},
	{
		"bufferView":1,
		"min":[-89.48613739013672,
		-84.20589447021485,
		-20.0],
		"byteOffset":0,
		"type":"VEC3",
		"componentType":5126,
		"count":868,
		"max":[76.62714385986328,
		60.520668029785159,
		0.0]
	},
	{
		"bufferView":1,
		"min":[-1.0,
		-0.9999786019325256,
		-1.0],
		"byteOffset":12,
		"type":"VEC3",
		"componentType":5126,
		"count":868,
		"max":[1.0,
		1.0,
		1.0]
	},
	{
		"bufferView":1,
		"min":[0.0,
		0.0],
		"byteOffset":24,
		"type":"VEC2",
		"componentType":5126,
		"count":868,
		"max":[1.0,
		1.0]
	}],
	"bufferViews":[{
		"buffer":0,
		"byteOffset":0,
		"byteLength":5040,
		"target":34963
	},
	{
		"buffer":0,
		"byteOffset":5040,
		"byteLength":27776,
		"target":34962,
		"byteStride":32
	}],
	"buffers":[{
		"uri":"data:application/octet-stream;base64,",
		"byteLength":32816
	}],
	"materials":[{
		"name":"Mat",
		"pbrMetallicRoughness":{
			"baseColorFactor":[1.0,
			1.0,
			1.0,
			1.0],
			"metallicFactor":1.0,
			"roughnessFactor":1.0
		},
		"emissiveFactor":[1.0,
		0.49999999999999969,
		0.0],
		"alphaMode":"OPAQUE",
		"doubleSided":false
	}]
}