{
	"scenes":[{
		"nodes":[0]
	}],
	"asset":{
		"version":"2.0",
		"generator":"Created using the official Cinema 4D glTF Exporter 1.000x284978"
	},
	"nodes":[{
		"name":"Python",
		"translation":[0.0,
		0.0,
		0.0],
		"rotation":[0.7071067690849304,
		0.0,
		0.0,
		-0.7071067690849304],
		"scale":[100.0,
		100.0,
		100.0],
		"mesh":0
	}],
	"meshes":[{
		"name":"Python",
		"primitives":[{
			"attributes":{
				"POSITION":1,
				"NORMAL":2,
				"TEXCOORD_0":3
			},
			"indices":0,
			"material":0
		}]
	}],
	"accessors":[{
		"bufferView":0,
		"min":[0],
		"byteOffset":0,
		"type":"SCALAR",
		"componentType":5123,
		"count":15888,
		"max":[9856]
	},
	{
		"bufferView":1,
		"min":[-31.244037628173829,
		-2.838791847229004,
		-30.946313858032228],
		"byteOffset":0,
		"type":"VEC3",
		"componentType":5126,
		"count":9857,
		"max":[31.24403953552246,
		2.8387930393218996,
		30.946311950683595]
	},
	{
		"bufferView":1,
		"min":[-1.0,
		-1.0,
		-1.0],
		"byteOffset":12,
		"type":"VEC3",
		"componentType":5126,
		"count":9857,
		"max":[1.0,
		1.0,
		1.0]
	},
	{
		"bufferView":1,
		"min":[0.010425007902085781,
		-0.9895621538162231],
		"byteOffset":24,
		"type":"VEC2",
		"componentType":5126,
		"count":9857,
		"max":[0.9494080543518066,
		-0.01042473316192627]
	}],
	"bufferViews":[{
		"buffer":0,
		"byteOffset":0,
		"byteLength":31776,
		"target":34963
	},
	{
		"buffer":0,
		"byteOffset":31776,
		"byteLength":315424,
		"target":34962,
		"byteStride":32
	}],
	"buffers":[{
		"uri":"data:application/octet-stream;base64,",
		"byteLength":347200
	}],
	"images":[{
		"uri":"data:image/jpeg;base64,"
	},
	{
		"uri":"data:image/jpeg;base64,"
	},
	{
		"uri":"data:image/jpeg;base64,"
	}],
	"samplers":[{
		"magFilter":9729,
		"minFilter":9729,
		"wrapS":10497,
		"wrapT":10497
	},
	{
		"magFilter":9729,
		"minFilter":9729,
		"wrapS":10497,
		"wrapT":10497
	},
	{
		"magFilter":9729,
		"minFilter":9729,
		"wrapS":10497,
		"wrapT":10497
	}],
	"textures":[{
		"sampler":0,
		"source":0
	},
	{
		"sampler":1,
		"source":1
	},
	{
		"sampler":2,
		"source":2
	}],
	"materials":[{
		"name":"Python",
		"pbrMetallicRoughness":{
			"baseColorTexture":{
				"index":0
			},
			"baseColorFactor":[0.800000011920929,
			0.800000011920929,
			0.800000011920929,
			1.0],
			"metallicRoughnessTexture":{
				"index":1
			},
			"metallicFactor":0.0,
			"roughnessFactor":0.5356143810225276
		},
		"normalTexture":{
			"index":2,
			"scale":1.0
		},
		"emissiveFactor":[0.0,
		0.0,
		0.0],
		"alphaMode":"OPAQUE",
		"doubleSided":false
	}]
}