{
	"scenes":[{
		"nodes":[0]
	}],
	"asset":{
		"version":"2.0",
		"generator":"Created using the official Cinema 4D glTF Exporter 1.000x284978"
	},
	"nodes":[{
		"name":"Sphere",
		"translation":[0.0,
		0.0,
		0.0],
		"rotation":[0.0,
		0.0,
		0.0,
		-1.0],
		"scale":[1.0,
		1.0,
		1.0],
		"mesh":0
	}],
	"meshes":[{
		"name":"Sphere",
		"primitives":[{
			"attributes":{
				"POSITION":1,
				"NORMAL":2,
				"TEXCOORD_0":3
			},
			"indices":0,
			"material":0
		}]
	}],
	"accessors":[{
		"bufferView":0,
		"min":[0],
		"byteOffset":0,
		"type":"SCALAR",
		"componentType":5123,
		"count":80784,
		"max":[13987]
	},
	{
		"bufferView":1,
		"min":[-178.76400756835938,
		-23.799999237060548,
		-191.86048889160157],
		"byteOffset":0,
		"type":"VEC3",
		"componentType":5126,
		"count":13988,
		"max":[178.76400756835938,
		23.799999237060548,
		191.86048889160157]
	},
	{
		"bufferView":1,
		"min":[-1.0,
		-1.0,
		-1.0],
		"byteOffset":12,
		"type":"VEC3",
		"componentType":5126,
		"count":13988,
		"max":[1.0,
		1.0,
		1.0]
	},
	{
		"bufferView":1,
		"min":[0.0,
		0.0],
		"byteOffset":24,
		"type":"VEC2",
		"componentType":5126,
		"count":13988,
		"max":[1.0,
		1.0]
	}],
	"bufferViews":[{
		"buffer":0,
		"byteOffset":0,
		"byteLength":161568,
		"target":34963
	},
	{
		"buffer":0,
		"byteOffset":161568,
		"byteLength":447616,
		"target":34962,
		"byteStride":32
	}],
	"buffers":[{
		"uri":"data:application/octet-stream;base64,",
		"byteLength":609184
	}],
	"materials":[{
		"name":"Mat",
		"pbrMetallicRoughness":{
			"baseColorFactor":[1.0,
			1.0,
			1.0,
			1.0],
			"metallicFactor":1.0,
			"roughnessFactor":1.0
		},
		"emissiveFactor":[0.0,
		0.9666666666666668,
		1.0],
		"alphaMode":"OPAQUE",
		"doubleSided":false
	}]
}