{
  "scenes": [
    {
      "nodes": [0]
    }
  ],
  "asset": {
    "version": "2.0",
    "generator": "Created using the official Cinema 4D glTF Exporter 1.000x284978"
  },
  "nodes": [
    {
      "name": "Cube",
      "translation": [0.0, 0.0, 0.0],
      "rotation": [0.0, 0.0, 0.0, -1.0],
      "scale": [1.0, 1.0, 1.0],
      "children": [1, 2, 3, 4, 5, 6, 7, 8, 9, 10, 11, 12, 13, 14]
    },
    {
      "name": "Cube-Mat",
      "translation": [0.0, 0.0, 0.0],
      "rotation": [0.0, 0.0, 0.0, -1.0],
      "scale": [1.0, 1.0, 1.0],
      "mesh": 0
    },
    {
      "name": "Cube-Mat.1",
      "translation": [0.0, 0.0, 0.0],
      "rotation": [0.0, 0.0, 0.0, -1.0],
      "scale": [1.0, 1.0, 1.0],
      "mesh": 1
    },
    {
      "name": "Cube-Mat.1",
      "translation": [0.0, 0.0, 0.0],
      "rotation": [0.0, 0.0, 0.0, -1.0],
      "scale": [1.0, 1.0, 1.0],
      "mesh": 2
    },
    {
      "name": "Cube-Mat.1",
      "translation": [0.0, 0.0, 0.0],
      "rotation": [0.0, 0.0, 0.0, -1.0],
      "scale": [1.0, 1.0, 1.0],
      "mesh": 3
    },
    {
      "name": "Cube-Mat.1",
      "translation": [0.0, 0.0, 0.0],
      "rotation": [0.0, 0.0, 0.0, -1.0],
      "scale": [1.0, 1.0, 1.0],
      "mesh": 4
    },
    {
      "name": "Cube-Mat.1",
      "translation": [0.0, 0.0, 0.0],
      "rotation": [0.0, 0.0, 0.0, -1.0],
      "scale": [1.0, 1.0, 1.0],
      "mesh": 5
    },
    {
      "name": "Cube-Mat.1",
      "translation": [0.0, 0.0, 0.0],
      "rotation": [0.0, 0.0, 0.0, -1.0],
      "scale": [1.0, 1.0, 1.0],
      "mesh": 6
    },
    {
      "name": "Cube-Mat.1",
      "translation": [0.0, 0.0, 0.0],
      "rotation": [0.0, 0.0, 0.0, -1.0],
      "scale": [1.0, 1.0, 1.0],
      "mesh": 7
    },
    {
      "name": "Cube-Mat.1",
      "translation": [0.0, 0.0, 0.0],
      "rotation": [0.0, 0.0, 0.0, -1.0],
      "scale": [1.0, 1.0, 1.0],
      "mesh": 8
    },
    {
      "name": "Cube-Mat.1",
      "translation": [0.0, 0.0, 0.0],
      "rotation": [0.0, 0.0, 0.0, -1.0],
      "scale": [1.0, 1.0, 1.0],
      "mesh": 9
    },
    {
      "name": "Cube-Mat.1",
      "translation": [0.0, 0.0, 0.0],
      "rotation": [0.0, 0.0, 0.0, -1.0],
      "scale": [1.0, 1.0, 1.0],
      "mesh": 10
    },
    {
      "name": "Cube-Mat.1",
      "translation": [0.0, 0.0, 0.0],
      "rotation": [0.0, 0.0, 0.0, -1.0],
      "scale": [1.0, 1.0, 1.0],
      "mesh": 11
    },
    {
      "name": "Cube-Mat.1",
      "translation": [0.0, 0.0, 0.0],
      "rotation": [0.0, 0.0, 0.0, -1.0],
      "scale": [1.0, 1.0, 1.0],
      "mesh": 12
    },
    {
      "name": "Cube-Mat.1",
      "translation": [0.0, 0.0, 0.0],
      "rotation": [0.0, 0.0, 0.0, -1.0],
      "scale": [1.0, 1.0, 1.0],
      "mesh": 13
    }
  ],
  "meshes": [
    {
      "name": "Cube-Mat",
      "primitives": [
        {
          "attributes": {
            "POSITION": 1,
            "NORMAL": 2,
            "TEXCOORD_0": 3
          },
          "indices": 0,
          "material": 0
        }
      ]
    },
    {
      "name": "Cube-Mat.1",
      "primitives": [
        {
          "attributes": {
            "POSITION": 5,
            "NORMAL": 6,
            "TEXCOORD_0": 7
          },
          "indices": 4,
          "material": 1
        }
      ]
    },
    {
      "name": "Cube-Mat.1",
      "primitives": [
        {
          "attributes": {
            "POSITION": 9,
            "NORMAL": 10,
            "TEXCOORD_0": 11
          },
          "indices": 8,
          "material": 1
        }
      ]
    },
    {
      "name": "Cube-Mat.1",
      "primitives": [
        {
          "attributes": {
            "POSITION": 13,
            "NORMAL": 14,
            "TEXCOORD_0": 15
          },
          "indices": 12,
          "material": 1
        }
      ]
    },
    {
      "name": "Cube-Mat.1",
      "primitives": [
        {
          "attributes": {
            "POSITION": 17,
            "NORMAL": 18,
            "TEXCOORD_0": 19
          },
          "indices": 16,
          "material": 1
        }
      ]
    },
    {
      "name": "Cube-Mat.1",
      "primitives": [
        {
          "attributes": {
            "POSITION": 21,
            "NORMAL": 22,
            "TEXCOORD_0": 23
          },
          "indices": 20,
          "material": 1
        }
      ]
    },
    {
      "name": "Cube-Mat.1",
      "primitives": [
        {
          "attributes": {
            "POSITION": 25,
            "NORMAL": 26,
            "TEXCOORD_0": 27
          },
          "indices": 24,
          "material": 1
        }
      ]
    },
    {
      "name": "Cube-Mat.1",
      "primitives": [
        {
          "attributes": {
            "POSITION": 29,
            "NORMAL": 30,
            "TEXCOORD_0": 31
          },
          "indices": 28,
          "material": 1
        }
      ]
    },
    {
      "name": "Cube-Mat.1",
      "primitives": [
        {
          "attributes": {
            "POSITION": 33,
            "NORMAL": 34,
            "TEXCOORD_0": 35
          },
          "indices": 32,
          "material": 1
        }
      ]
    },
    {
      "name": "Cube-Mat.1",
      "primitives": [
        {
          "attributes": {
            "POSITION": 37,
            "NORMAL": 38,
            "TEXCOORD_0": 39
          },
          "indices": 36,
          "material": 1
        }
      ]
    },
    {
      "name": "Cube-Mat.1",
      "primitives": [
        {
          "attributes": {
            "POSITION": 41,
            "NORMAL": 42,
            "TEXCOORD_0": 43
          },
          "indices": 40,
          "material": 1
        }
      ]
    },
    {
      "name": "Cube-Mat.1",
      "primitives": [
        {
          "attributes": {
            "POSITION": 45,
            "NORMAL": 46,
            "TEXCOORD_0": 47
          },
          "indices": 44,
          "material": 1
        }
      ]
    },
    {
      "name": "Cube-Mat.1",
      "primitives": [
        {
          "attributes": {
            "POSITION": 49,
            "NORMAL": 50,
            "TEXCOORD_0": 51
          },
          "indices": 48,
          "material": 1
        }
      ]
    },
    {
      "name": "Cube-Mat.1",
      "primitives": [
        {
          "attributes": {
            "POSITION": 53,
            "NORMAL": 54,
            "TEXCOORD_0": 55
          },
          "indices": 52,
          "material": 1
        }
      ]
    }
  ],
  "accessors": [
    {
      "bufferView": 0,
      "min": [0],
      "byteOffset": 0,
      "type": "SCALAR",
      "componentType": 5123,
      "count": 6888,
      "max": [1515]
    },
    {
      "bufferView": 1,
      "min": [-57.55580139160156, -11.820390701293946, -92.54747009277344],
      "byteOffset": 0,
      "type": "VEC3",
      "componentType": 5126,
      "count": 1516,
      "max": [57.55580139160156, 11.820390701293946, 92.54747009277344]
    },
    {
      "bufferView": 1,
      "min": [-1.0, -1.0, -1.0],
      "byteOffset": 12,
      "type": "VEC3",
      "componentType": 5126,
      "count": 1516,
      "max": [1.0, 1.0, 1.0]
    },
    {
      "bufferView": 1,
      "min": [0.21511627733707429, 0.13846154510974885],
      "byteOffset": 24,
      "type": "VEC2",
      "componentType": 5126,
      "count": 1516,
      "max": [0.7965115904808044, 0.9076923131942749]
    },
    {
      "bufferView": 2,
      "min": [0],
      "byteOffset": 0,
      "type": "SCALAR",
      "componentType": 5123,
      "count": 90,
      "max": [23]
    },
    {
      "bufferView": 3,
      "min": [23.981586456298829, -11.820390701293946, 7.450580596923828e-9],
      "byteOffset": 0,
      "type": "VEC3",
      "componentType": 5126,
      "count": 24,
      "max": [43.16685485839844, -11.820389747619629, 30.84915542602539]
    },
    {
      "bufferView": 3,
      "min": [0.0, -1.0, 0.0],
      "byteOffset": 12,
      "type": "VEC3",
      "componentType": 5126,
      "count": 24,
      "max": [0.006781250238418579, -0.9999688267707825, 0.0]
    },
    {
      "bufferView": 3,
      "min": [0.7083333730697632, 0.3333333134651184],
      "byteOffset": 24,
      "type": "VEC2",
      "componentType": 5126,
      "count": 24,
      "max": [0.875, 0.5]
    },
    {
      "bufferView": 4,
      "min": [0],
      "byteOffset": 0,
      "type": "SCALAR",
      "componentType": 5123,
      "count": 312,
      "max": [71]
    },
    {
      "bufferView": 5,
      "min": [-23.981586456298829, -4.925162315368652, 92.54745483398438],
      "byteOffset": 0,
      "type": "VEC3",
      "componentType": 5126,
      "count": 72,
      "max": [0.0, 8.865291595458985, 92.54747009277344]
    },
    {
      "bufferView": 5,
      "min": [0.0, 0.0, 0.971125066280365],
      "byteOffset": 12,
      "type": "VEC3",
      "componentType": 5126,
      "count": 72,
      "max": [0.0, 0.238218754529953, 1.0]
    },
    {
      "bufferView": 5,
      "min": [0.2916666865348816, 0.1249999850988388],
      "byteOffset": 24,
      "type": "VEC2",
      "componentType": 5126,
      "count": 72,
      "max": [0.5, 0.7083332538604736]
    },
    {
      "bufferView": 6,
      "min": [0],
      "byteOffset": 0,
      "type": "SCALAR",
      "componentType": 5123,
      "count": 360,
      "max": [82]
    },
    {
      "bufferView": 7,
      "min": [54.55810546875, -4.925162315368652, 7.7122883796691898],
      "byteOffset": 0,
      "type": "VEC3",
      "componentType": 5126,
      "count": 83,
      "max": [57.55580139160156, 11.204744338989258, 46.27373123168945]
    },
    {
      "bufferView": 7,
      "min": [0.22425000369548798, 0.0, 0.0],
      "byteOffset": 12,
      "type": "VEC3",
      "componentType": 5126,
      "count": 83,
      "max": [1.0, 0.9745000600814819, 0.0]
    },
    {
      "bufferView": 7,
      "min": [0.25, 0.0],
      "byteOffset": 24,
      "type": "VEC2",
      "componentType": 5126,
      "count": 83,
      "max": [0.4583333432674408, 0.7083332538604736]
    },
    {
      "bufferView": 8,
      "min": [0],
      "byteOffset": 0,
      "type": "SCALAR",
      "componentType": 5123,
      "count": 1350,
      "max": [287]
    },
    {
      "bufferView": 9,
      "min": [-28.77790641784668, -11.820390701293946, -87.72727966308594],
      "byteOffset": 0,
      "type": "VEC3",
      "componentType": 5126,
      "count": 288,
      "max": [23.981586456298829, 2.9550974369049074, 92.54747009277344]
    },
    {
      "bufferView": 9,
      "min": [0.0, -1.0, -0.14259375631809236],
      "byteOffset": 12,
      "type": "VEC3",
      "componentType": 5126,
      "count": 288,
      "max": [0.0, 0.0, 1.0]
    },
    {
      "bufferView": 9,
      "min": [0.25, 0.0],
      "byteOffset": 24,
      "type": "VEC2",
      "componentType": 5126,
      "count": 288,
      "max": [0.7083333730697632, 1.0]
    },
    {
      "bufferView": 10,
      "min": [0],
      "byteOffset": 0,
      "type": "SCALAR",
      "componentType": 5123,
      "count": 540,
      "max": [134]
    },
    {
      "bufferView": 11,
      "min": [-57.55580139160156, -11.820390701293946, -46.27373504638672],
      "byteOffset": 0,
      "type": "VEC3",
      "componentType": 5126,
      "count": 135,
      "max": [43.16685485839844, -8.865291595458985, 46.27373504638672]
    },
    {
      "bufferView": 11,
      "min": [-0.9876875281333923, -1.0, 0.0],
      "byteOffset": 12,
      "type": "VEC3",
      "componentType": 5126,
      "count": 135,
      "max": [0.006781250238418579, -0.15625, 0.0]
    },
    {
      "bufferView": 11,
      "min": [0.0, 0.2499999701976776],
      "byteOffset": 24,
      "type": "VEC2",
      "componentType": 5126,
      "count": 135,
      "max": [0.875, 1.0]
    },
    {
      "bufferView": 12,
      "min": [0],
      "byteOffset": 0,
      "type": "SCALAR",
      "componentType": 5123,
      "count": 210,
      "max": [60]
    },
    {
      "bufferView": 13,
      "min": [19.18526840209961, -11.820390701293946, 30.84915542602539],
      "byteOffset": 0,
      "type": "VEC3",
      "componentType": 5126,
      "count": 61,
      "max": [57.25603103637695, -9.76481819152832, 82.71965026855469]
    },
    {
      "bufferView": 13,
      "min": [0.0, -1.0, 0.0],
      "byteOffset": 12,
      "type": "VEC3",
      "componentType": 5126,
      "count": 61,
      "max": [0.8372187614440918, -0.5464375019073486, 0.2032812535762787]
    },
    {
      "bufferView": 13,
      "min": [0.04296875, 0.0429687425494194],
      "byteOffset": 24,
      "type": "VEC2",
      "componentType": 5126,
      "count": 61,
      "max": [1.0, 1.0]
    },
    {
      "bufferView": 14,
      "min": [0],
      "byteOffset": 0,
      "type": "SCALAR",
      "componentType": 5123,
      "count": 3090,
      "max": [741]
    },
    {
      "bufferView": 15,
      "min": [-57.55580139160156, -11.820390701293946, -92.06544494628906],
      "byteOffset": 0,
      "type": "VEC3",
      "componentType": 5126,
      "count": 742,
      "max": [56.35672378540039, 8.865291595458985, 92.54747009277344]
    },
    {
      "bufferView": 15,
      "min": [-1.0, -1.0, -0.7156875133514404],
      "byteOffset": 12,
      "type": "VEC3",
      "componentType": 5126,
      "count": 742,
      "max": [0.6495000123977661, 0.23721876740455628, 1.0]
    },
    {
      "bufferView": 15,
      "min": [0.0, 0.0],
      "byteOffset": 24,
      "type": "VEC2",
      "componentType": 5126,
      "count": 742,
      "max": [1.0, 1.0]
    },
    {
      "bufferView": 16,
      "min": [0],
      "byteOffset": 0,
      "type": "SCALAR",
      "componentType": 5123,
      "count": 114,
      "max": [30]
    },
    {
      "bufferView": 17,
      "min": [-57.55580139160156, -8.865291595458985, -53.98602294921875],
      "byteOffset": 0,
      "type": "VEC3",
      "componentType": 5126,
      "count": 31,
      "max": [-57.5557975769043, -1.9700648784637452, -23.136865615844728]
    },
    {
      "bufferView": 17,
      "min": [-1.0, -0.15625, 0.0],
      "byteOffset": 12,
      "type": "VEC3",
      "componentType": 5126,
      "count": 31,
      "max": [-0.9876875281333923, 0.0, 0.0]
    },
    {
      "bufferView": 17,
      "min": [0.2083333432674408, 0.5833332538604736],
      "byteOffset": 24,
      "type": "VEC2",
      "componentType": 5126,
      "count": 31,
      "max": [0.375, 0.8749998807907105]
    },
    {
      "bufferView": 18,
      "min": [0],
      "byteOffset": 0,
      "type": "SCALAR",
      "componentType": 5123,
      "count": 2760,
      "max": [531]
    },
    {
      "bufferView": 19,
      "min": [-54.55810546875, -10.589098930358887, -92.54747009277344],
      "byteOffset": 0,
      "type": "VEC3",
      "componentType": 5126,
      "count": 532,
      "max": [57.25603103637695, 11.758825302124024, -76.640869140625]
    },
    {
      "bufferView": 19,
      "min": [-0.8362500667572022, -0.9367188215255737, -1.0],
      "byteOffset": 12,
      "type": "VEC3",
      "componentType": 5126,
      "count": 532,
      "max": [0.9957500696182251, 0.9997813105583191, -0.018937500193715097]
    },
    {
      "bufferView": 19,
      "min": [0.0, 0.0],
      "byteOffset": 24,
      "type": "VEC2",
      "componentType": 5126,
      "count": 532,
      "max": [1.0, 0.9583332538604736]
    },
    {
      "bufferView": 20,
      "min": [0],
      "byteOffset": 0,
      "type": "SCALAR",
      "componentType": 5123,
      "count": 624,
      "max": [158]
    },
    {
      "bufferView": 21,
      "min": [57.25602722167969, -7.8802595138549809, -53.98602294921875],
      "byteOffset": 0,
      "type": "VEC3",
      "componentType": 5126,
      "count": 159,
      "max": [57.55580139160156, 9.7887601852417, 61.69831848144531]
    },
    {
      "bufferView": 21,
      "min": [0.8371250629425049, 0.0, 0.0],
      "byteOffset": 12,
      "type": "VEC3",
      "componentType": 5126,
      "count": 159,
      "max": [1.0, 0.5469375252723694, 0.0]
    },
    {
      "bufferView": 21,
      "min": [0.1666666567325592, 0.0833333283662796],
      "byteOffset": 24,
      "type": "VEC2",
      "componentType": 5126,
      "count": 159,
      "max": [0.7916666269302368, 0.8333332538604736]
    },
    {
      "bufferView": 22,
      "min": [0],
      "byteOffset": 0,
      "type": "SCALAR",
      "componentType": 5123,
      "count": 1776,
      "max": [410]
    },
    {
      "bufferView": 23,
      "min": [47.54682159423828, -10.589098930358887, -92.06544494628906],
      "byteOffset": 0,
      "type": "VEC3",
      "componentType": 5126,
      "count": 411,
      "max": [57.55580139160156, 11.758824348449707, 90.619384765625]
    },
    {
      "bufferView": 23,
      "min": [0.030500002205371858, -0.8666250705718994, -0.9466875195503235],
      "byteOffset": 12,
      "type": "VEC3",
      "componentType": 5126,
      "count": 411,
      "max": [1.0, 0.9994375705718994, 0.8464375138282776]
    },
    {
      "bufferView": 23,
      "min": [0.0, 0.0],
      "byteOffset": 24,
      "type": "VEC2",
      "componentType": 5126,
      "count": 411,
      "max": [1.0, 0.9583332538604736]
    },
    {
      "bufferView": 24,
      "min": [0],
      "byteOffset": 0,
      "type": "SCALAR",
      "componentType": 5123,
      "count": 180,
      "max": [44]
    },
    {
      "bufferView": 25,
      "min": [0.0, 1.9700649976730347, 90.619384765625],
      "byteOffset": 0,
      "type": "VEC3",
      "componentType": 5126,
      "count": 45,
      "max": [23.981586456298829, 10.589098930358887, 92.54747009277344]
    },
    {
      "bufferView": 25,
      "min": [0.0, 0.0, 0.3500312566757202],
      "byteOffset": 12,
      "type": "VEC3",
      "componentType": 5126,
      "count": 45,
      "max": [0.0, 0.9367188215255737, 1.0]
    },
    {
      "bufferView": 25,
      "min": [0.5, 0.0416666641831398],
      "byteOffset": 24,
      "type": "VEC2",
      "componentType": 5126,
      "count": 45,
      "max": [0.7083333730697632, 0.4166666269302368]
    },
    {
      "bufferView": 26,
      "min": [0],
      "byteOffset": 0,
      "type": "SCALAR",
      "componentType": 5123,
      "count": 2442,
      "max": [559]
    },
    {
      "bufferView": 27,
      "min": [-57.55580139160156, -10.589098930358887, -82.9071044921875],
      "byteOffset": 0,
      "type": "VEC3",
      "componentType": 5126,
      "count": 560,
      "max": [54.55810546875, 11.57413101196289, 92.54747009277344]
    },
    {
      "bufferView": 27,
      "min": [-1.0, -0.9367188215255737, -0.2472500056028366],
      "byteOffset": 12,
      "type": "VEC3",
      "componentType": 5126,
      "count": 560,
      "max": [0.8362500667572022, 0.9985625743865967, 1.0]
    },
    {
      "bufferView": 27,
      "min": [0.0, 0.0],
      "byteOffset": 24,
      "type": "VEC2",
      "componentType": 5126,
      "count": 560,
      "max": [1.0, 1.0]
    }
  ],
  "bufferViews": [
    {
      "buffer": 0,
      "byteOffset": 0,
      "byteLength": 13776,
      "target": 34963
    },
    {
      "buffer": 0,
      "byteOffset": 13776,
      "byteLength": 48512,
      "target": 34962,
      "byteStride": 32
    },
    {
      "buffer": 1,
      "byteOffset": 0,
      "byteLength": 180,
      "target": 34963
    },
    {
      "buffer": 1,
      "byteOffset": 180,
      "byteLength": 768,
      "target": 34962,
      "byteStride": 32
    },
    {
      "buffer": 2,
      "byteOffset": 0,
      "byteLength": 624,
      "target": 34963
    },
    {
      "buffer": 2,
      "byteOffset": 624,
      "byteLength": 2304,
      "target": 34962,
      "byteStride": 32
    },
    {
      "buffer": 3,
      "byteOffset": 0,
      "byteLength": 720,
      "target": 34963
    },
    {
      "buffer": 3,
      "byteOffset": 720,
      "byteLength": 2656,
      "target": 34962,
      "byteStride": 32
    },
    {
      "buffer": 4,
      "byteOffset": 0,
      "byteLength": 2700,
      "target": 34963
    },
    {
      "buffer": 4,
      "byteOffset": 2700,
      "byteLength": 9216,
      "target": 34962,
      "byteStride": 32
    },
    {
      "buffer": 5,
      "byteOffset": 0,
      "byteLength": 1080,
      "target": 34963
    },
    {
      "buffer": 5,
      "byteOffset": 1080,
      "byteLength": 4320,
      "target": 34962,
      "byteStride": 32
    },
    {
      "buffer": 6,
      "byteOffset": 0,
      "byteLength": 420,
      "target": 34963
    },
    {
      "buffer": 6,
      "byteOffset": 420,
      "byteLength": 1952,
      "target": 34962,
      "byteStride": 32
    },
    {
      "buffer": 7,
      "byteOffset": 0,
      "byteLength": 6180,
      "target": 34963
    },
    {
      "buffer": 7,
      "byteOffset": 6180,
      "byteLength": 23744,
      "target": 34962,
      "byteStride": 32
    },
    {
      "buffer": 8,
      "byteOffset": 0,
      "byteLength": 228,
      "target": 34963
    },
    {
      "buffer": 8,
      "byteOffset": 228,
      "byteLength": 992,
      "target": 34962,
      "byteStride": 32
    },
    {
      "buffer": 9,
      "byteOffset": 0,
      "byteLength": 5520,
      "target": 34963
    },
    {
      "buffer": 9,
      "byteOffset": 5520,
      "byteLength": 17024,
      "target": 34962,
      "byteStride": 32
    },
    {
      "buffer": 10,
      "byteOffset": 0,
      "byteLength": 1248,
      "target": 34963
    },
    {
      "buffer": 10,
      "byteOffset": 1248,
      "byteLength": 5088,
      "target": 34962,
      "byteStride": 32
    },
    {
      "buffer": 11,
      "byteOffset": 0,
      "byteLength": 3552,
      "target": 34963
    },
    {
      "buffer": 11,
      "byteOffset": 3552,
      "byteLength": 13152,
      "target": 34962,
      "byteStride": 32
    },
    {
      "buffer": 12,
      "byteOffset": 0,
      "byteLength": 360,
      "target": 34963
    },
    {
      "buffer": 12,
      "byteOffset": 360,
      "byteLength": 1440,
      "target": 34962,
      "byteStride": 32
    },
    {
      "buffer": 13,
      "byteOffset": 0,
      "byteLength": 4884,
      "target": 34963
    },
    {
      "buffer": 13,
      "byteOffset": 4884,
      "byteLength": 17920,
      "target": 34962,
      "byteStride": 32
    }
  ],
  "buffers": [
    {
      "uri": "data:application/octet-stream;base64,",
      "byteLength": 62288
    },
    {
      "uri": "data:application/octet-stream;base64,",
      "byteLength": 948
    },
    {
      "uri": "data:application/octet-stream;base64,",
      "byteLength": 2928
    },
    {
      "uri": "data:application/octet-stream;base64,",
      "byteLength": 3376
    },
    {
      "uri": "data:application/octet-stream;base64,",
      "byteLength": 11916
    },
    {
      "uri": "data:application/octet-stream;base64,",
      "byteLength": 5400
    },
    {
      "uri": "data:application/octet-stream;base64,",
      "byteLength": 2372
    },
    {
      "uri": "data:application/octet-stream;base64,",
      "byteLength": 29924
    },
    {
      "uri": "data:application/octet-stream;base64,",
      "byteLength": 1220
    },
    {
      "uri": "data:application/octet-stream;base64,",
      "byteLength": 22544
    },
    {
      "uri": "data:application/octet-stream;base64,",
      "byteLength": 6336
    },
    {
      "uri": "data:application/octet-stream;base64,",
      "byteLength": 16704
    },
    {
      "uri": "data:application/octet-stream;base64,",
      "byteLength": 1800
    },
    {
      "uri": "data:application/octet-stream;base64,",
      "byteLength": 22804
    }
  ],
  "images": [
    {
      "uri": "data:image/jpeg;base64,"
    }
  ],
  "samplers": [
    {
      "magFilter": 9729,
      "minFilter": 9729,
      "wrapS": 10497,
      "wrapT": 10497
    }
  ],
  "textures": [
    {
      "sampler": 0,
      "source": 0
    }
  ],
  "materials": [
    {
      "name": "Mat",
      "pbrMetallicRoughness": {
        "baseColorTexture": {
          "index": 0
        },
        "baseColorFactor": [0.8, 0.8, 0.8, 1.0],
        "metallicFactor": 0.0,
        "roughnessFactor": 0.5
      },
      "emissiveFactor": [0.0, 0.0, 0.0],
      "alphaMode": "OPAQUE",
      "doubleSided": false
    },
    {
      "name": "Mat.1",
      "pbrMetallicRoughness": {
        "baseColorFactor": [0.0, 0.0, 0.0, 1.0],
        "metallicFactor": 0.0,
        "roughnessFactor": 0.5
      },
      "emissiveFactor": [0.0, 0.0, 0.0],
      "alphaMode": "OPAQUE",
      "doubleSided": false
    }
  ]
}
